{"title":"My.Week.With.Marilyn.2011.BRRip.XviD.Ac3.Feel-Free","uid":7049413,"size":1067824984,"categoryP":"video","categoryS":"movies","magnet":"?xt=urn:btih:333c432e3a7fa1518547665e11a6f681015488f2&amp;dn=My.Week.With.Marilyn.2011.BRRip.XviD.Ac3.Feel-Free&amp;tr=udp%3A%2F%2Ftracker.openbittorrent.com%3A80&amp;tr=udp%3A%2F%2Fopen.demonii.com%3A1337&amp;tr=udp%3A%2F%2Ftracker.coppersurfer.tk%3A6969&amp;tr=udp%3A%2F%2Fexodus.desync.com%3A6969","seeders":0,"leechers":0,"uploader":"HeroMaster","files":-1,"time":1329897214,"description":"My.Week.With.Marilyn.2011.BRRip.XviD.Ac3.Feel-Free\n\nGenre:Biography | Drama\nLanguage:English\nIMDb:http://www.imdb.com/title/tt1655420/\nSource:720p.BluRay.x264.DTS-HDChina Thanks!\nEncoder:Tony\n\nFormat : AVI\nFormat/Info : Audio Video Interleave\nFile size : 1 017 MiB\nDuration : 1h 38mn\nOverall bit rate : 1 437 Kbps\n\n\nVideo\nID : 0\nFormat : MPEG-4 Visual\nFormat profile : Advanced Simple@L5\nFormat settings, BVOP : 1\nFormat settings, QPel : No\nFormat settings, GMC : No warppoints\nFormat settings, Matrix : Default (H.263)\nCodec ID : XVID\nCodec ID/Hint : XviD\nDuration : 1h 38mn\nBit rate : 980 Kbps\nWidth : 640 pixels\nHeight : 272 pixels\nDisplay aspect ratio : 2.35:1\nFrame rate : 23.976 fps\nColor space : YUV\nChroma subsampling : 4:2:0\nBit depth : 8 bits\nScan type : Progressive\nCompression mode : Lossy\nBits/(Pixel*Frame) : 0.235\nStream size : 693 MiB (68%)\nWriting library : XviD 1.2.1 (UTC 2008-12-04)\n\nAudio\nID : 1\nFormat : AC-3\nFormat/Info : Audio Coding 3\nMode extension : CM (complete main)\nCodec ID : 2000\nDuration : 1h 38mn\nBit rate mode : Constant\nBit rate : 448 Kbps\nChannel(s) : 6 channels\nChannel positions : Front: L C R, Side: L R, LFE\nSampling rate : 48.0 KHz\nBit depth : 16 bits\nCompression mode : Lossy\nStream size : 317 MiB (31%)\nAlignment : Aligned on interleaves\nInterleave, duration : 42 ms (1.00 video frame)\nInterleave, preload duration : 512 ms\n\n\nPlot:\nColin Clark, an employee of Sir Laurence Olivier's, documents the tense \ninteraction between Olivier and Marilyn Monroe during production of The Prince \nand the Showgirl.\n\n\nPoster:\n\n &lt;a href=&quot;\nhttp://i.imgur.com/RO8H1.jpg&quot; rel=&quot;nofollow&quot; target=&quot;_NEW&quot;&gt;\nhttp://i.imgur.com/RO8H1.jpg&lt;/a&gt;\n\n\nScreens:\n\n &lt;a href=&quot;\nhttp://i.imgur.com/aDWCZ.png&quot; rel=&quot;nofollow&quot; target=&quot;_NEW&quot;&gt;\nhttp://i.imgur.com/aDWCZ.png&lt;/a&gt;\n\n &lt;a href=&quot;\nhttp://i.imgur.com/EtuJE.png&quot; rel=&quot;nofollow&quot; target=&quot;_NEW&quot;&gt;\nhttp://i.imgur.com/EtuJE.png&lt;/a&gt;\n\n &lt;a href=&quot;\nhttp://i.imgur.com/E9AxZ.png&quot; rel=&quot;nofollow&quot; target=&quot;_NEW&quot;&gt;\nhttp://i.imgur.com/E9AxZ.png&lt;/a&gt;\n\n\nENJOY!","torrent":{"xt":"urn:btih:333c432e3a7fa1518547665e11a6f681015488f2","amp;dn":"My.Week.With.Marilyn.2011.BRRip.XviD.Ac3.Feel-Free","amp;tr":["udp%3A%2F%2Ftracker.openbittorrent.com%3A80","udp%3A%2F%2Fopen.demonii.com%3A1337","udp%3A%2F%2Ftracker.coppersurfer.tk%3A6969","udp%3A%2F%2Fexodus.desync.com%3A6969"],"infoHash":"333c432e3a7fa1518547665e11a6f681015488f2","infoHashBuffer":{"type":"Buffer","data":[51,60,67,46,58,127,161,81,133,71,102,94,17,166,246,129,1,84,136,242]},"announce":[],"urlList":[]}}